<?xml version="1.0" encoding="UTF-8"?>
<svg version="1.1" xmlns="http://www.w3.org/2000/svg" width="454" height="437">
<path d="M0 0 C149.82 0 299.64 0 454 0 C454 144.21 454 288.42 454 437 C304.18 437 154.36 437 0 437 C0 292.79 0 148.58 0 0 Z " fill="#EBE6DF" transform="translate(0,0)"/>
<path d="M0 0 C20.01742416 -0.58874777 20.01742416 -0.58874777 28 3 C28.88816406 3.39058594 29.77632812 3.78117187 30.69140625 4.18359375 C43.05896845 10.25556796 51.54862191 20.09100353 56 33 C56.51949219 32.04738281 57.03898437 31.09476563 57.57421875 30.11328125 C58.27820366 28.84610841 58.98265572 27.57919502 59.6875 26.3125 C60.02716797 25.68666016 60.36683594 25.06082031 60.71679688 24.41601562 C63.01308804 20.31702859 65.50832256 17.21234324 69 14 C69.598125 13.401875 70.19625 12.80375 70.8125 12.1875 C71.204375 11.795625 71.59625 11.40375 72 11 C74.91517292 12.07401108 76.77810176 12.77810176 79 15 C79 18 79 18 77.4609375 19.54296875 C76.77257812 20.08566406 76.08421875 20.62835938 75.375 21.1875 C69.39148779 26.20729608 65.21105383 31.86432483 62 39 C62.85658203 39.03867188 62.85658203 39.03867188 63.73046875 39.078125 C83.81027859 40.48275399 102.46440477 50.74116561 115.57421875 65.81640625 C123.7247459 76.12064845 130.36244796 88.5894253 130 102 C127.25998315 103.37000843 125.0600974 103.10971221 121.99609375 103.10546875 C120.77986328 103.12029297 119.56363281 103.13511719 118.31054688 103.15039062 C115.75597132 103.17486714 113.20113616 103.1804933 110.64648438 103.16601562 C101.05039619 103.33259685 95.50861347 105.33619875 88.84375 112.23046875 C88.4003125 112.87628906 87.956875 113.52210938 87.5 114.1875 C87.0359375 114.84105469 86.571875 115.49460937 86.09375 116.16796875 C84.27721388 119.21066675 83.87433309 121.75763129 83.8581543 125.22094727 C83.85111984 126.06935684 83.84408539 126.91776642 83.83683777 127.79188538 C83.83059135 129.16527321 83.83059135 129.16527321 83.82421875 130.56640625 C83.80100429 132.51628664 83.77688631 134.46615645 83.75195312 136.41601562 C83.71697893 139.48127156 83.68757204 142.54614197 83.67407227 145.61157227 C83.65847045 148.57615816 83.61816845 151.53962184 83.57421875 154.50390625 C83.57612717 155.40532852 83.57803558 156.30675079 83.58000183 157.23548889 C83.43255953 165.01823655 81.32487632 171.51268552 77 178 C82.92581496 173.65616713 85.74320274 168.96687455 88 162 C88.93788711 155.80583439 88.71368996 149.49648347 88.625 143.25 C88.60079056 140.77337405 88.58583719 138.29796709 88.59457397 135.82122803 C88.59908094 134.29401631 88.58502513 132.76658262 88.54824829 131.23980713 C88.55143721 124.89385203 90.58849848 119.79453643 94.74609375 114.9765625 C95.30425781 114.53054687 95.86242187 114.08453125 96.4375 113.625 C97.27087891 112.93277344 97.27087891 112.93277344 98.12109375 112.2265625 C102.07882049 109.64293215 105.54154924 108.7624532 110.23828125 108.83203125 C111.22376953 108.82494141 112.20925781 108.81785156 113.22460938 108.81054688 C115.27158998 108.81184161 117.31865585 108.83245575 119.36523438 108.87304688 C126.01357055 108.78209244 129.46544861 107.71195913 134.16137695 102.9543457 C134.76812256 102.30941162 135.37486816 101.66447754 136 101 C137.26206048 99.86016283 138.53150677 98.72844437 139.80859375 97.60546875 C147.73172794 90.91172695 147.73172794 90.91172695 151.0625 81.625 C151.00642578 80.45324219 151.00642578 80.45324219 150.94921875 79.2578125 C151.04058002 75.19574973 153.43386388 72.02596399 156 69 C160.47018709 66.01987527 164.75895482 66.39266858 170 67 C174.4331235 69.13739883 177.12530646 71.4174158 179 76 C179.53580592 81.6259622 179.18905893 85.16142783 176 90 C172.43641747 93.87801628 169.31631184 94.54971034 164.28125 95.01953125 C162 95 162 95 159.70947266 94.17895508 C156.79081531 93.68821827 156.79081531 93.68821827 154.27685547 96.07373047 C153.29167768 97.07337601 152.32263343 98.08908752 151.3671875 99.1171875 C150.84867218 99.64893585 150.33015686 100.1806842 149.79592896 100.72854614 C148.14084949 102.4304513 146.50737177 104.15132689 144.875 105.875 C143.2322112 107.58794006 141.58522192 109.29652922 139.93264771 111.00003052 C138.90553864 112.06105819 137.88467677 113.12817673 136.87081909 114.20187378 C132.79696762 118.44703438 130.06595363 119.11008156 124.30859375 119.28125 C123.19935547 119.31863281 122.09011719 119.35601562 120.94726562 119.39453125 C118.60351915 119.46496103 116.25976913 119.53527314 113.91601562 119.60546875 C112.2540918 119.66154297 112.2540918 119.66154297 110.55859375 119.71875 C109.54079834 119.74904297 108.52300293 119.77933594 107.47436523 119.81054688 C104.99834582 119.84348322 104.99834582 119.84348322 103 121 C120.16 121.33 137.32 121.66 155 122 C155.66 120.35 156.32 118.7 157 117 C160.02918089 113.68427497 163.48467408 111.68347106 168 111.4375 C172.34405687 111.75741117 175.69613189 113.16452838 179 116 C181.86877827 119.34267674 183.23929933 122.66422744 183.5 127.0625 C182.76983114 132.81257974 180.60347723 135.54923488 176.375 139.375 C171.77887409 141.58794951 168.00055797 142.17344382 163 141 C159.87972481 139.06240976 157.31373009 136.85661648 155 134 C155 133.34 155 132.68 155 132 C136.52 132 118.04 132 99 132 C99 134.31 99 136.62 99 139 C100.46022583 138.97643433 100.46022583 138.97643433 101.94995117 138.95239258 C105.57470367 138.89793761 109.19942026 138.86359374 112.82446289 138.83520508 C114.39093107 138.82015378 115.95735736 138.79970793 117.52368164 138.77368164 C119.78021606 138.73713567 122.03619153 138.72023739 124.29296875 138.70703125 C124.98899704 138.69154739 125.68502533 138.67606354 126.40214539 138.66011047 C131.67396098 138.65830138 134.81590863 139.84506186 138.5546875 143.53393555 C138.99039063 144.062854 139.42609375 144.59177246 139.875 145.13671875 C145.56079892 152.11458217 145.56079892 152.11458217 153.45703125 155.60546875 C155.65383249 155.45458252 157.84793756 155.25451272 160.03515625 155 C163.75009758 155 165.00142997 155.94489174 167.75 158.375 C170.8611299 161.55148978 171.92778039 163.14780863 172.3125 167.6875 C172.22920216 172.27721085 170.99267696 175.51295752 168 179 C164.65732326 181.86877827 161.33577256 183.23929933 156.9375 183.5 C151.20790271 182.77243209 148.48396485 180.60111996 144.625 176.4375 C142.86346823 172.7111828 143.03888966 171.78319127 143.5 167.875 C143.56517221 161.94432927 141.47142512 158.03953111 137.54394531 153.80517578 C128.06295048 145.9167125 110.57229983 148.64266058 99 149 C99.33 154.61 99.66 160.22 100 166 C101.155 164.515 102.31 163.03 103.5 161.5 C107.28075787 157.18588521 107.28075787 157.18588521 110.3125 156.40234375 C112.5 156.4375 112.5 156.4375 116 157 C113.25822842 162.27263766 110.44905283 166.03453987 106 170 C105.34 170 104.68 170 104 170 C104 170.66 104 171.32 104 172 C85.89346969 185.04015617 66.70673594 189.97070279 44.5390625 186.3828125 C24.00272919 182.22759147 8.15576714 169.30421666 -3.75 152.53515625 C-7.90921269 146.11957068 -10.11969595 139.37591997 -12 132 C-12.17805176 131.32356445 -12.35610352 130.64712891 -12.53955078 129.95019531 C-16.04604659 115.70486022 -14.88284605 100.73898841 -10 87 C-9.43925781 85.38158203 -9.43925781 85.38158203 -8.8671875 83.73046875 C-6.25114455 76.84386561 -2.80449953 71.54285335 2 66 C2.53367188 65.32324219 3.06734375 64.64648438 3.6171875 63.94921875 C12.72526982 52.72753838 26.33524711 45.2586068 40 41 C40 40.67 40 40.34 40 40 C39.3709375 39.90203125 38.741875 39.8040625 38.09375 39.703125 C25.41231634 37.48769382 16.69293483 31.20820533 8.6875 21.0625 C4.00913331 14.39051114 0.92711584 8.14466284 0 0 Z " fill="#FB7514" transform="translate(154,64)"/>
<path d="M0 0 C4.4331235 2.13739883 7.12530646 4.4174158 9 9 C9.53580592 14.6259622 9.18905893 18.16142783 6 23 C2.43641747 26.87801628 -0.68368816 27.54971034 -5.71875 28.01953125 C-8 28 -8 28 -10.29052734 27.17895508 C-13.20918469 26.68821827 -13.20918469 26.68821827 -15.72314453 29.07373047 C-16.70832232 30.07337601 -17.67736657 31.08908752 -18.6328125 32.1171875 C-19.15132782 32.64893585 -19.66984314 33.1806842 -20.20407104 33.72854614 C-21.85915051 35.4304513 -23.49262823 37.15132689 -25.125 38.875 C-26.7677888 40.58794006 -28.41477808 42.29652922 -30.06735229 44.00003052 C-31.09446136 45.06105819 -32.11532323 46.12817673 -33.12918091 47.20187378 C-37.20303238 51.44703438 -39.93404637 52.11008156 -45.69140625 52.28125 C-46.80064453 52.31863281 -47.90988281 52.35601562 -49.05273438 52.39453125 C-51.39648085 52.46496103 -53.74023087 52.53527314 -56.08398438 52.60546875 C-57.7459082 52.66154297 -57.7459082 52.66154297 -59.44140625 52.71875 C-60.45920166 52.74904297 -61.47699707 52.77933594 -62.52563477 52.81054688 C-65.00165418 52.84348322 -65.00165418 52.84348322 -67 54 C-49.84 54.33 -32.68 54.66 -15 55 C-14.34 53.35 -13.68 51.7 -13 50 C-9.97081911 46.68427497 -6.51532592 44.68347106 -2 44.4375 C2.34405687 44.75741117 5.69613189 46.16452838 9 49 C11.86877827 52.34267674 13.23929933 55.66422744 13.5 60.0625 C12.76983114 65.81257974 10.60347723 68.54923488 6.375 72.375 C1.77887409 74.58794951 -1.99944203 75.17344382 -7 74 C-10.12027519 72.06240976 -12.68626991 69.85661648 -15 67 C-15 66.34 -15 65.68 -15 65 C-33.48 65 -51.96 65 -71 65 C-71 67.31 -71 69.62 -71 72 C-69.53977417 71.97643433 -69.53977417 71.97643433 -68.05004883 71.95239258 C-64.42529633 71.89793761 -60.80057974 71.86359374 -57.17553711 71.83520508 C-55.60906893 71.82015378 -54.04264264 71.79970793 -52.47631836 71.77368164 C-50.21978394 71.73713567 -47.96380847 71.72023739 -45.70703125 71.70703125 C-45.01100296 71.69154739 -44.31497467 71.67606354 -43.59785461 71.66011047 C-38.32603902 71.65830138 -35.18409137 72.84506186 -31.4453125 76.53393555 C-31.00960937 77.062854 -30.57390625 77.59177246 -30.125 78.13671875 C-24.43920108 85.11458217 -24.43920108 85.11458217 -16.54296875 88.60546875 C-14.34616751 88.45458252 -12.15206244 88.25451272 -9.96484375 88 C-6.24990242 88 -4.99857003 88.94489174 -2.25 91.375 C0.8611299 94.55148978 1.92778039 96.14780863 2.3125 100.6875 C2.22920216 105.27721085 0.99267696 108.51295752 -2 112 C-5.34267674 114.86877827 -8.66422744 116.23929933 -13.0625 116.5 C-18.79209729 115.77243209 -21.51603515 113.60111996 -25.375 109.4375 C-27.13653177 105.7111828 -26.96111034 104.78319127 -26.5 100.875 C-26.43482779 94.94432927 -28.52857488 91.03953111 -32.45605469 86.80517578 C-41.93704952 78.9167125 -59.42770017 81.64266058 -71 82 C-70.67 87.61 -70.34 93.22 -70 99 C-68.845 97.515 -67.69 96.03 -66.5 94.5 C-62.71924213 90.18588521 -62.71924213 90.18588521 -59.6875 89.40234375 C-57.5 89.4375 -57.5 89.4375 -54 90 C-56.74177158 95.27263766 -59.55094717 99.03453987 -64 103 C-64.66 103 -65.32 103 -66 103 C-66 103.66 -66 104.32 -66 105 C-68.14281033 106.46582355 -70.26706396 107.81123514 -72.5 109.125 C-73.12003906 109.49753906 -73.74007812 109.87007813 -74.37890625 110.25390625 C-75.91537838 111.17578953 -77.45720675 112.08873475 -79 113 C-79.33 112.34 -79.66 111.68 -80 111 C-79.0625 108.875 -79.0625 108.875 -78 107 C-78.99 106.67 -79.98 106.34 -81 106 C-81 105.34 -81 104.68 -81 104 C-81.66 104 -82.32 104 -83 104 C-82.83862549 102.69426025 -82.67725098 101.38852051 -82.51098633 100.04321289 C-82.00198434 95.45121136 -81.8502748 90.92492565 -81.82421875 86.30859375 C-81.80103823 84.6881378 -81.77692164 83.06769501 -81.75195312 81.44726562 C-81.7168279 78.9371629 -81.68744702 76.42755547 -81.67407227 73.91723633 C-81.65850615 71.46377702 -81.61828102 69.01168603 -81.57421875 66.55859375 C-81.57612717 65.81878769 -81.57803558 65.07898163 -81.58000183 64.3167572 C-81.43289611 57.97333373 -79.41813739 52.80222633 -75.25390625 47.9765625 C-74.69574219 47.53054687 -74.13757813 47.08453125 -73.5625 46.625 C-73.00691406 46.16351563 -72.45132813 45.70203125 -71.87890625 45.2265625 C-67.92117951 42.64293215 -64.45845076 41.7624532 -59.76171875 41.83203125 C-58.77623047 41.82494141 -57.79074219 41.81785156 -56.77539062 41.81054688 C-54.72841002 41.81184161 -52.68134415 41.83245575 -50.63476562 41.87304688 C-43.98642945 41.78209244 -40.53455139 40.71195913 -35.83862305 35.9543457 C-35.23187744 35.30941162 -34.62513184 34.66447754 -34 34 C-32.73793952 32.86016283 -31.46849323 31.72844437 -30.19140625 30.60546875 C-22.26827206 23.91172695 -22.26827206 23.91172695 -18.9375 14.625 C-18.99357422 13.45324219 -18.99357422 13.45324219 -19.05078125 12.2578125 C-18.95941998 8.19574973 -16.56613612 5.02596399 -14 2 C-9.52981291 -0.98012473 -5.24104518 -0.60733142 0 0 Z " fill="#FA7619" transform="translate(324,131)"/>
<path d="M0 0 C7.17254487 -0.49529082 11.41609796 0.87686452 17.046875 5.33984375 C22.45272796 10.43877099 25.26083601 15.25234691 25.52270508 22.79785156 C25.6419038 30.6849854 25.04848336 36.78403842 20.1796875 43.3515625 C15.44904274 48.08220726 10.1118853 50.70215412 3.36865234 50.8203125 C2.68754395 50.81 2.00643555 50.7996875 1.3046875 50.7890625 C0.59650879 50.78003906 -0.11166992 50.77101563 -0.84130859 50.76171875 C-7.5804665 50.53816686 -11.91631195 49.42561714 -16.5546875 44.515625 C-23.23300427 36.2154313 -23.6921118 27.74609264 -22.8203125 17.3515625 C-21.18185678 10.69403988 -16.41838234 6.06645811 -10.8203125 2.3515625 C-7.29771046 0.70034279 -3.82308368 0.47656168 0 0 Z " fill="#272724" transform="translate(74.8203125,278.6484375)"/>
<path d="M0 0 C7.13493048 -0.60421934 13.1596468 2.283945 18.91796875 6.31640625 C25.77382655 14.06820001 26.69205914 21.33224795 26.14892578 31.32226562 C25.47045184 37.18037889 22.56137375 41.67300125 18.48046875 45.75390625 C12.91390164 49.14815449 8.61698703 50.85344189 2.04296875 50.75390625 C1.33479004 50.74488281 0.62661133 50.73585938 -0.10302734 50.7265625 C-6.84218525 50.50301061 -11.1780307 49.39046089 -15.81640625 44.48046875 C-22.49472302 36.18027505 -22.95383055 27.71093639 -22.08203125 17.31640625 C-20.44614577 10.66932726 -15.68376773 6.01334751 -10.08203125 2.31640625 C-6.76730922 0.84537576 -3.54729222 0.53908193 0 0 Z " fill="#262624" transform="translate(313.08203125,278.68359375)"/>
<path d="M0 0 C1.69867523 0.9751016 3.34835906 2.03449916 4.98828125 3.10546875 C5.31828125 2.11546875 5.64828125 1.12546875 5.98828125 0.10546875 C8.95828125 0.10546875 11.92828125 0.10546875 14.98828125 0.10546875 C15.06267098 5.40735841 15.11699636 10.70894143 15.15307617 16.01123047 C15.16812365 17.81336767 15.18856655 19.61546848 15.21459961 21.41748047 C15.25116146 24.01408896 15.26804806 26.6102115 15.28125 29.20703125 C15.29673386 30.00726715 15.31221771 30.80750305 15.32817078 31.63198853 C15.33032255 38.85229603 12.88786611 43.74654781 7.98828125 49.10546875 C1.72574481 51.1929809 -6.88555539 51.30076956 -13.13671875 48.98046875 C-16.53735724 46.76266104 -18.14322694 44.69297302 -20.01171875 41.10546875 C-20.01171875 40.11546875 -20.01171875 39.12546875 -20.01171875 38.10546875 C-18.57516021 38.02415412 -17.13727045 37.96613316 -15.69921875 37.91796875 C-14.49845703 37.86576172 -14.49845703 37.86576172 -13.2734375 37.8125 C-11.01171875 38.10546875 -11.01171875 38.10546875 -9.53125 39.58984375 C-7.41211178 41.70353431 -5.95434125 41.53858985 -3.01171875 41.54296875 C-2.14546875 41.56230469 -1.27921875 41.58164062 -0.38671875 41.6015625 C2.12239199 41.30589595 2.12239199 41.30589595 3.7890625 39.28125 C5.35156589 36.44634971 5.20545767 34.2907229 4.98828125 31.10546875 C4.29476563 31.58628906 3.60125 32.06710937 2.88671875 32.5625 C-2.19322668 35.26678362 -7.43258186 35.20895897 -13.01171875 34.10546875 C-16.68923883 31.42925364 -18.99338584 28.14213457 -21.01171875 24.10546875 C-21.94911203 12.1191284 -21.94911203 12.1191284 -19.32421875 6.48046875 C-13.94870715 0.95967305 -7.98937621 -3.55255758 0 0 Z " fill="#292826" transform="translate(391.01171875,292.89453125)"/>
<path d="M0 0 C2.625 1.5625 2.625 1.5625 3.625 2.5625 C3.955 1.5725 4.285 0.5825 4.625 -0.4375 C7.595 -0.4375 10.565 -0.4375 13.625 -0.4375 C13.72443082 4.82774445 13.79673199 10.09243343 13.84472656 15.35839844 C13.86474959 17.14690684 13.89197654 18.93535054 13.92675781 20.72363281 C13.97568955 23.30550162 13.99806165 25.8864995 14.015625 28.46875 C14.03627014 29.25866333 14.05691528 30.04857666 14.07818604 30.86242676 C14.08052645 36.75122449 12.56190216 40.46102982 9.625 45.5625 C8.965 45.5625 8.305 45.5625 7.625 45.5625 C7.295 46.5525 6.965 47.5425 6.625 48.5625 C1.46735687 51.14132157 -7.56456696 50.35782783 -13.0390625 48.80859375 C-16.62831442 47.09462513 -19.57644262 45.15961476 -21.375 41.5625 C-21.375 40.2425 -21.375 38.9225 -21.375 37.5625 C-19.93844146 37.48118537 -18.5005517 37.42316441 -17.0625 37.375 C-15.86173828 37.32279297 -15.86173828 37.32279297 -14.63671875 37.26953125 C-12.375 37.5625 -12.375 37.5625 -10.89453125 39.05078125 C-9.44277559 40.78647016 -9.44277559 40.78647016 -7 40.9609375 C-5.700625 40.94933594 -5.700625 40.94933594 -4.375 40.9375 C-3.50875 40.94523437 -2.6425 40.95296875 -1.75 40.9609375 C0.66335905 40.73545972 0.66335905 40.73545972 2.42578125 39.26953125 C4.35479457 36.5236719 3.8085387 33.80501709 3.625 30.5625 C3.15191406 30.86285156 2.67882812 31.16320312 2.19140625 31.47265625 C-2.47401428 34.15550041 -5.91459773 35.15696591 -11.265625 34.234375 C-15.87794851 32.76526455 -18.41173957 29.87895592 -21.25 26 C-23.2864366 19.77755483 -23.2864366 13.34744517 -21.25 7.125 C-15.8655259 -0.23378128 -8.9125934 -3.7961046 0 0 Z " fill="#272724" transform="translate(229.375,293.4375)"/>
<path d="M0 0 C4.80953487 1.63180647 7.20843577 3.79550735 10 8 C10.45410156 11.22973633 10.45410156 11.22973633 10.390625 14.83203125 C10.37773437 16.12431641 10.36484375 17.41660156 10.3515625 18.74804688 C10.31814634 20.10287546 10.28428662 21.45769317 10.25 22.8125 C10.22992034 24.18682317 10.21167213 25.56117439 10.1953125 26.93554688 C10.14821732 30.29107856 10.08245135 33.64518127 10 37 C8.72125 37.061875 7.4425 37.12375 6.125 37.1875 C5.04605469 37.23970703 5.04605469 37.23970703 3.9453125 37.29296875 C3.30335938 37.19628906 2.66140625 37.09960938 2 37 C1.34 36.01 0.68 35.02 0 34 C-0.78375 34.495 -1.5675 34.99 -2.375 35.5 C-7.02168472 37.42276609 -11.03475381 37.91857054 -16 37 C-19.0625 34.5625 -19.0625 34.5625 -21 32 C-21.33 31.67 -21.66 31.34 -22 31 C-22.6650694 26.40152012 -22.65639609 23.02835387 -20.125 19.0625 C-13.74823712 14.8538365 -6.44968492 14.72408574 1 15 C0.34 13.02 -0.32 11.04 -1 9 C-2.45742463 8.91903197 -3.91612807 8.86082226 -5.375 8.8125 C-6.59316406 8.76029297 -6.59316406 8.76029297 -7.8359375 8.70703125 C-8.55007812 8.80371094 -9.26421875 8.90039062 -10 9 C-10.99 10.485 -10.99 10.485 -12 12 C-13.9453125 12.29296875 -13.9453125 12.29296875 -16.125 12.1875 C-17.40375 12.125625 -18.6825 12.06375 -20 12 C-20.26377246 9.0629951 -20.31718574 7.48230891 -18.671875 4.98046875 C-12.80462906 -0.4932424 -7.85299941 -1.20560132 0 0 Z " fill="#2A2A28" transform="translate(152,292)"/>
<path d="M0 0 C5.12972042 3.13297257 7.97255493 5.9055978 9.5234375 11.90234375 C9.5234375 14.54234375 9.5234375 17.18234375 9.5234375 19.90234375 C1.2734375 19.90234375 -6.9765625 19.90234375 -15.4765625 19.90234375 C-14.07284729 25.60420135 -14.07284729 25.60420135 -11.4765625 27.90234375 C-9.37238282 28.25873936 -9.37238282 28.25873936 -7.0390625 28.21484375 C-6.25660156 28.23160156 -5.47414063 28.24835938 -4.66796875 28.265625 C-1.96848015 27.81811619 -1.35594839 26.80161732 0.5234375 24.90234375 C3.24851548 24.51155819 5.75465706 24.76617422 8.5234375 24.90234375 C8.37161118 27.55930443 8.05019726 29.34468899 6.19140625 31.3125 C0.24730601 36.27314813 -3.91622152 36.46350266 -11.4765625 35.90234375 C-15.73667677 35.00807183 -18.78758 33.59132625 -21.9140625 30.46484375 C-24.53335982 26.16919615 -24.63519296 22.45927431 -24.6640625 17.46484375 C-24.67824219 16.35238281 -24.69242188 15.23992187 -24.70703125 14.09375 C-24.34696771 9.10778544 -23.28390644 6.67380573 -19.6640625 3.21484375 C-13.59469972 -1.18841944 -7.15808642 -3.17259035 0 0 Z " fill="#262624" transform="translate(274.4765625,293.09765625)"/>
<path d="M0 0 C3.76483582 3.32706421 5.48655706 6.51076804 6.02807617 11.53466797 C6.0045105 13.18426514 6.0045105 13.18426514 5.98046875 14.8671875 C5.9659668 16.66542969 5.9659668 16.66542969 5.95117188 18.5 C5.92603516 19.7375 5.90089844 20.975 5.875 22.25 C5.85469727 24.14105469 5.85469727 24.14105469 5.83398438 26.0703125 C5.79873435 29.17231454 5.74945504 32.27343534 5.6875 35.375 C2.3875 35.375 -0.9125 35.375 -4.3125 35.375 C-4.33231934 34.59785645 -4.35213867 33.82071289 -4.37255859 33.02001953 C-4.46757009 29.51299309 -4.57734559 26.00658206 -4.6875 22.5 C-4.7184375 21.27667969 -4.749375 20.05335938 -4.78125 18.79296875 C-4.81992188 17.62636719 -4.85859375 16.45976562 -4.8984375 15.2578125 C-4.9298584 14.17902832 -4.9612793 13.10024414 -4.99365234 11.98876953 C-5.05926322 9.21738346 -5.05926322 9.21738346 -7.3125 7.375 C-9.22256306 7.0573754 -9.22256306 7.0573754 -11.3125 7.125 C-12.01375 7.11984375 -12.715 7.1146875 -13.4375 7.109375 C-15.5560669 7.21794485 -15.5560669 7.21794485 -17.3125 9.375 C-17.68457354 12.09115864 -17.68457354 12.09115864 -17.7265625 15.2578125 C-17.78457031 17.00771484 -17.78457031 17.00771484 -17.84375 18.79296875 C-17.8746875 20.01628906 -17.905625 21.23960937 -17.9375 22.5 C-17.99550781 24.34658203 -17.99550781 24.34658203 -18.0546875 26.23046875 C-18.1491999 29.27849376 -18.23475494 32.32650862 -18.3125 35.375 C-21.6125 35.375 -24.9125 35.375 -28.3125 35.375 C-28.3125 23.495 -28.3125 11.615 -28.3125 -0.625 C-25.3425 -0.625 -22.3725 -0.625 -19.3125 -0.625 C-19.3125 0.695 -19.3125 2.015 -19.3125 3.375 C-18.6525 3.375 -17.9925 3.375 -17.3125 3.375 C-16.9825 2.385 -16.6525 1.395 -16.3125 0.375 C-10.94117736 -2.7175797 -5.40378536 -2.65091357 0 0 Z " fill="#31302E" transform="translate(196.3125,293.625)"/>
<path d="M0 0 C2.93977281 1.4885714 4.89791767 3.2171972 6.90625 5.80859375 C8.82404532 12.12603715 8.9069898 18.5432554 6.78125 24.80859375 C4.34836679 28.16429473 1.67460709 30.4556652 -2.03125 32.30859375 C-8.45631974 32.85309119 -11.78779537 32.11266868 -17.03125 28.30859375 C-20.63956187 23.49751126 -21.44712151 18.59689842 -21.37890625 12.69140625 C-20.62142044 7.4996496 -17.61746727 3.71856465 -13.78125 0.30859375 C-9.16178534 -1.37121158 -4.69246238 -1.597242 0 0 Z " fill="#E8E4DE" transform="translate(82.03125,288.69140625)"/>
<path d="M0 0 C2.9075563 1.47225838 4.88868578 3.2078678 6.90625 5.74609375 C8.65445389 11.60771857 9.36158977 18.52292669 7.20703125 24.37890625 C4.64623026 28.40735998 1.42659944 30.82264394 -3.03125 32.30859375 C-8.75844196 32.84889488 -11.59007194 31.96022905 -16.03125 28.30859375 C-20.50005731 23.35667213 -21.44567236 19.47322194 -21.37890625 12.94921875 C-20.66996862 7.56447903 -17.75449083 3.84036338 -13.78125 0.30859375 C-9.16178534 -1.37121158 -4.69246238 -1.597242 0 0 Z " fill="#E8E3DD" transform="translate(321.03125,288.69140625)"/>
<path d="M0 0 C4.65118292 2.28583776 7.39716836 5.43231843 9.078125 10.3359375 C9.87226773 14.5686364 9.40204049 17.68810653 7.453125 21.5859375 C3.52286159 26.13676882 0.26059038 28.54961736 -5.796875 29.0234375 C-11.07124907 28.83991162 -13.74383743 26.6629521 -17.42578125 23.0625 C-18.921875 21.3359375 -18.921875 21.3359375 -19.921875 19.3359375 C-21.93857327 18.20243216 -21.93857327 18.20243216 -23.921875 17.3359375 C-23.261875 17.0059375 -22.601875 16.6759375 -21.921875 16.3359375 C-22.581875 15.6759375 -23.241875 15.0159375 -23.921875 14.3359375 C-23.921875 13.3459375 -23.921875 12.3559375 -23.921875 11.3359375 C-39.761875 11.0059375 -55.601875 10.6759375 -71.921875 10.3359375 C-71.921875 10.0059375 -71.921875 9.6759375 -71.921875 9.3359375 C-54.431875 9.3359375 -36.941875 9.3359375 -18.921875 9.3359375 C-18.261875 7.6859375 -17.601875 6.0359375 -16.921875 4.3359375 C-12.18865601 -0.84501842 -6.59459654 -2.27862075 0 0 Z " fill="#F98733" transform="translate(327.921875,176.6640625)"/>
<path d="M0 0 C7.59265112 5.93035472 13.74719589 12.13416762 15 22 C14.5880771 24.52422519 13.9051887 26.58616346 13 29 C11.125 28.75 11.125 28.75 9 28 C7.75 25.9375 7.75 25.9375 7 24 C6.01 24 5.02 24 4 24 C3.34 23.01 2.68 22.02 2 21 C1.01 20.67 0.02 20.34 -1 20 C-1 20.99 -1 21.98 -1 23 C-0.34 23 0.32 23 1 23 C1 24.65 1 26.3 1 28 C2.32 28.33 3.64 28.66 5 29 C4.67 29.66 4.34 30.32 4 31 C1.67843403 31.40729228 -0.6568787 31.74438677 -3 32 C-2.01 31.01 -1.02 30.02 0 29 C-0.6290625 28.90203125 -1.258125 28.8040625 -1.90625 28.703125 C-9.81078779 27.32221177 -16.62344352 25.27264922 -22 19 C-18.08746351 19.60861679 -14.56982264 20.21508868 -11 22 C-10.401875 21.34 -9.80375 20.68 -9.1875 20 C-7 18 -7 18 -4 18 C-6.29272726 11.73321216 -10.66360157 8.78134731 -16 5 C-15.34 4.67 -14.68 4.34 -14 4 C-11.5249829 5.11431765 -9.32116581 6.58150978 -7 8 C-3.83282717 6.41641358 -2.26731682 5.54736301 -0.6875 2.3125 C-0.460625 1.549375 -0.23375 0.78625 0 0 Z " fill="#FA7519" transform="translate(194,75)"/>
<path d="M0 0 C7.4564542 -0.02536111 14.91289727 -0.04287159 22.36938477 -0.05493164 C24.90584733 -0.05995948 27.44230699 -0.06678262 29.97875977 -0.07543945 C33.62517004 -0.08757274 37.27154197 -0.09324384 40.91796875 -0.09765625 C42.05147263 -0.10281754 43.1849765 -0.10797882 44.35282898 -0.11329651 C45.94391228 -0.11340981 45.94391228 -0.11340981 47.56713867 -0.11352539 C48.96279305 -0.11685631 48.96279305 -0.11685631 50.38664246 -0.12025452 C53.01814708 0.00083504 55.43509391 0.41481802 58 1 C56.68 1.99 55.36 2.98 54 4 C54.66 4.66 55.32 5.32 56 6 C55.67 6.33 55.34 6.66 55 7 C55.66 7.66 56.32 8.32 57 9 C39.18 9 21.36 9 3 9 C3.66 6.69 4.32 4.38 5 2 C3.35 2 1.7 2 0 2 C0 1.34 0 0.68 0 0 Z " fill="#FC7313" transform="translate(251,187)"/>
<path d="M0 0 C0 2.97 0 5.94 0 9 C-3.41796875 9.68359375 -3.41796875 9.68359375 -6.8359375 10.3671875 C-9.18673923 10.86658932 -9.18673923 10.86658932 -11 13 C-11.37135915 15.52037964 -11.37135915 15.52037964 -11.4140625 18.4453125 C-11.47207031 20.05986328 -11.47207031 20.05986328 -11.53125 21.70703125 C-11.5621875 22.83496094 -11.593125 23.96289062 -11.625 25.125 C-11.68300781 26.82849609 -11.68300781 26.82849609 -11.7421875 28.56640625 C-11.83667601 31.37743956 -11.92223541 34.18846233 -12 37 C-14.97 37 -17.94 37 -21 37 C-21 25.12 -21 13.24 -21 1 C-18.03 1 -15.06 1 -12 1 C-11.67 1.99 -11.34 2.98 -11 4 C-10.566875 3.525625 -10.13375 3.05125 -9.6875 2.5625 C-6.71099957 -0.19351892 -3.86163376 -0.10436848 0 0 Z " fill="#2A2A27" transform="translate(367,292)"/>
<path d="M0 0 C0 2.64 0 5.28 0 8 C-1.0725 8.226875 -2.145 8.45375 -3.25 8.6875 C-7.64986005 10.22745102 -8.66405889 11.01279017 -11 15 C-11.61994402 18.60018801 -11.69610863 22.16503403 -11.75 25.8125 C-11.77964844 26.79154297 -11.80929688 27.77058594 -11.83984375 28.77929688 C-11.91029202 31.18627953 -11.96311025 33.5923079 -12 36 C-14.64 36 -17.28 36 -20 36 C-20 24.45 -20 12.9 -20 1 C-17.36 1 -14.72 1 -12 1 C-12 2.32 -12 3.64 -12 5 C-11.236875 4.360625 -10.47375 3.72125 -9.6875 3.0625 C-6.15702757 0.35306767 -4.48048683 0 0 0 Z " fill="#22221F" transform="translate(127,292)"/>
<path d="M0 0 C4.16358973 1.4018538 7.03648541 3.56844429 9.4375 7.25 C11.47114483 11.36130794 11.57725909 14.45408469 11 19 C8.6006196 23.79876079 5.83831756 26.6704397 1 29 C-2.39390805 29.47122904 -5.62583224 29.64463446 -9 29 C-10.80078125 27.47265625 -10.80078125 27.47265625 -12 26 C-10.68 26 -9.36 26 -8 26 C-7.67 25.34 -7.34 24.68 -7 24 C-4.93359375 23.5859375 -4.93359375 23.5859375 -2.4375 23.375 C-1.61121094 23.30023438 -0.78492188 23.22546875 0.06640625 23.1484375 C1.02353516 23.07496094 1.02353516 23.07496094 2 23 C1.01732141 21.79438816 1.01732141 21.79438816 -0.84765625 21.90234375 C-2.8984375 21.93489583 -4.94921875 21.96744792 -7 22 C-7.33 21.34 -7.66 20.68 -8 20 C-6.329375 20.061875 -6.329375 20.061875 -4.625 20.125 C-0.95633975 20.41121859 -0.95633975 20.41121859 1 18 C1.25003964 14.45821402 1.25003964 14.45821402 1 11 C-0.03406673 9.74050951 -0.03406673 9.74050951 -2.28515625 9.90234375 C-3.20167969 9.91394531 -4.11820312 9.92554688 -5.0625 9.9375 C-5.98160156 9.94652344 -6.90070313 9.95554688 -7.84765625 9.96484375 C-8.55792969 9.97644531 -9.26820313 9.98804688 -10 10 C-10 8 -10 8 -8 6 C-7.67 5.01 -7.34 4.02 -7 3 C-8.32 2.67 -9.64 2.34 -11 2 C-7.26545706 -0.48969529 -4.32367629 -0.62788681 0 0 Z " fill="#F97B24" transform="translate(326,176)"/>
<path d="M0 0 C1.5 1 1.5 1 3 3 C3.6152351 8.27344368 3.24845633 11.97320029 0.32421875 16.45703125 C-2.51800384 19.76876553 -5.73629516 21.57528168 -10.01953125 22.37890625 C-15.32623519 22.69345275 -18.0383393 21.16932856 -22 18 C-21.67 17.34 -21.34 16.68 -21 16 C-20.34 16 -19.68 16 -19 16 C-18.94392578 14.98679688 -18.94392578 14.98679688 -18.88671875 13.953125 C-18.78810547 12.61507812 -18.78810547 12.61507812 -18.6875 11.25 C-18.62949219 10.36828125 -18.57148438 9.4865625 -18.51171875 8.578125 C-17.92514228 5.62285423 -17.08115304 4.16043506 -15 2 C-11.38925156 1.38540452 -9.69861159 1.54038711 -6.625 3.5625 C-4.45544998 6.81682503 -4.70548493 9.17130414 -5 13 C-4.34 12.67 -3.68 12.34 -3 12 C-2.53476937 10.10466658 -2.53476937 10.10466658 -2.375 7.9375 C-2.25125 6.638125 -2.1275 5.33875 -2 4 C-1.67 4 -1.34 4 -1 4 C-0.67 5.65 -0.34 7.3 0 9 C0.66 9 1.32 9 2 9 C2 8.01 2 7.02 2 6 C1.34 6 0.68 6 0 6 C0 4.02 0 2.04 0 0 Z " fill="#F67722" transform="translate(323,225)"/>
<path d="M0 0 C3.58136186 3.05907992 4.84368566 4.88626036 5.5 9.5625 C4.97300076 13.18561975 4.22264703 15.11879089 2 18 C-1.51824511 20.34549674 -2.85775694 20.57991403 -7 20 C-9.875 18.1875 -9.875 18.1875 -12 15 C-12.83363977 10.09964795 -12.95412984 5.70948264 -10.5 1.3125 C-6.96389159 -0.54395692 -3.83380679 -0.99451226 0 0 Z " fill="#E6E1DB" transform="translate(392,300)"/>
<path d="M0 0 C3.62129338 0.86767624 4.97000055 2.40608971 6.97265625 5.47265625 C7.92748384 10.14539656 7.6356862 13.41180833 5.09765625 17.47265625 C2.5478334 19.87248952 1.58246683 20.40637249 -1.90234375 20.78515625 C-5.02734375 20.47265625 -5.02734375 20.47265625 -7.33984375 18.59765625 C-10.24175991 14.94339146 -10.3778277 12.30107002 -10.296875 7.73828125 C-10.02734375 5.47265625 -10.02734375 5.47265625 -8.52734375 2.41015625 C-5.66518151 0.19198052 -3.62027287 -0.26390774 0 0 Z " fill="#E3DFD9" transform="translate(227.02734375,299.52734375)"/>
<path d="M0 0 C4.4331235 2.13739883 7.12530646 4.4174158 9 9 C9.52560727 14.51887632 9.3472029 18.35710565 6 23 C1.75942484 25.32031471 -2.21838112 26.41687575 -7 27 C-6.67 25.02 -6.34 23.04 -6 21 C-2.535 20.505 -2.535 20.505 1 20 C1 16.7 1 13.4 1 10 C-1.97 9.67 -4.94 9.34 -8 9 C-8.33 7.68 -8.66 6.36 -9 5 C-9.66 5 -10.32 5 -11 5 C-11 4.34 -11 3.68 -11 3 C-12.32 3.33 -13.64 3.66 -15 4 C-11.39765101 -1.48929369 -5.89247155 -0.84544157 0 0 Z " fill="#F8771D" transform="translate(324,131)"/>
<path d="M0 0 C2.375 1.625 2.375 1.625 4 4 C4.31452272 7.14522722 4.42041821 9.15916359 3 12 C0.67843403 12.40729228 -1.6568787 12.74438677 -4 13 C-3.67 13.99 -3.34 14.98 -3 16 C-3.66 16 -4.32 16 -5 16 C-5 16.99 -5 17.98 -5 19 C-4.45730469 18.79503906 -3.91460937 18.59007812 -3.35546875 18.37890625 C-2.64003906 18.10949219 -1.92460937 17.84007812 -1.1875 17.5625 C-0.47980469 17.29566406 0.22789062 17.02882812 0.95703125 16.75390625 C2.62672396 16.13774814 4.31157704 15.56280765 6 15 C5 18 5 18 2.8125 19.1875 C-1.23235956 20.35601498 -4.64068541 20.27804162 -8.75 19.4375 C-11.02413438 18.75802104 -11.02413438 18.75802104 -13 20 C-13.33 18.68 -13.66 17.36 -14 16 C-13.34 16 -12.68 16 -12 16 C-12.04125 14.96875 -12.0825 13.9375 -12.125 12.875 C-11.97348431 8.17801373 -11.52819353 4.63735021 -8.25 1.125 C-5.23559254 -0.38220373 -3.32988382 -0.48560806 0 0 Z " fill="#F87C27" transform="translate(322,139)"/>
<path d="M0 0 C4.38971924 1.47683863 7.77141386 3.8550929 11.375 6.6875 C11.94500732 7.13013184 12.51501465 7.57276367 13.10229492 8.02880859 C17.39166258 11.40727365 21.26756041 15.00715765 25 19 C24.67 19.66 24.34 20.32 24 21 C22.125 20.6875 22.125 20.6875 20 20 C19.34 19.01 18.68 18.02 18 17 C17.01 16.67 16.02 16.34 15 16 C15 16.99 15 17.98 15 19 C15.66 19 16.32 19 17 19 C17 20.65 17 22.3 17 24 C18.32 24.33 19.64 24.66 21 25 C20.67 25.66 20.34 26.32 20 27 C17.67843403 27.40729228 15.3431213 27.74438677 13 28 C13.99 27.01 14.98 26.02 16 25 C15.3709375 24.90203125 14.741875 24.8040625 14.09375 24.703125 C6.18921221 23.32221177 -0.62344352 21.27264922 -6 15 C-2.08746351 15.60861679 1.43017736 16.21508868 5 18 C5.598125 17.34 6.19625 16.68 6.8125 16 C9 14 9 14 12 14 C9.95282141 8.40437851 6.64467832 5.87247094 1.86328125 2.41796875 C1.24839844 1.95003906 0.63351563 1.48210937 0 1 C0 0.67 0 0.34 0 0 Z " fill="#F97C26" transform="translate(178,79)"/>
<path d="M0 0 C7.92 0 15.84 0 24 0 C24 0.99 24 1.98 24 3 C24.66 3 25.32 3 26 3 C26 2.34 26 1.68 26 1 C26.99 1 27.98 1 29 1 C28.34 3.31 27.68 5.62 27 8 C23.43721911 7.86057319 19.8748574 7.71232922 16.3125 7.5625 C14.80139648 7.50352539 14.80139648 7.50352539 13.25976562 7.44335938 C12.28330078 7.40146484 11.30683594 7.35957031 10.30078125 7.31640625 C9.40528564 7.27974854 8.50979004 7.24309082 7.5871582 7.20532227 C4.99221912 6.99938249 2.53945316 6.56232178 0 6 C0 5.01 0 4.02 0 3 C0.66 3 1.32 3 2 3 C2 2.34 2 1.68 2 1 C1.34 0.67 0.68 0.34 0 0 Z " fill="#FB7411" transform="translate(259,174)"/>
<path d="M0 0 C0.99 0.66 1.98 1.32 3 2 C3.33 1.34 3.66 0.68 4 0 C4.66 0 5.32 0 6 0 C6 0.66 6 1.32 6 2 C6.66 2.33 7.32 2.66 8 3 C3.38 7.62 -1.24 12.24 -6 17 C-6.33 16.34 -6.66 15.68 -7 15 C-7.66 14.67 -8.32 14.34 -9 14 C-8.01 14 -7.02 14 -6 14 C-5.67 12.68 -5.34 11.36 -5 10 C-5.99 10 -6.98 10 -8 10 C-8 10.66 -8 11.32 -8 12 C-8.66 12 -9.32 12 -10 12 C-10 11.01 -10 10.02 -10 9 C-17.92 9 -25.84 9 -34 9 C-34 8.67 -34 8.34 -34 8 C-33.34515625 8.00636475 -32.6903125 8.01272949 -32.015625 8.01928711 C-29.00929415 8.02804496 -26.00597746 7.98315579 -23 7.9375 C-21.45505859 7.95393555 -21.45505859 7.95393555 -19.87890625 7.97070312 C-14.14975643 7.84298322 -10.7621127 7.37098221 -6.4375 3.44140625 C-5.83808594 2.80017822 -5.23867188 2.1589502 -4.62109375 1.49829102 C-3 0 -3 0 0 0 Z " fill="#F6771F" transform="translate(293,165)"/>
<path d="M0 0 C2.375 -0.125 2.375 -0.125 5 0 C5.66 0.66 6.32 1.32 7 2 C9.0088822 2.03188702 11.02006256 2.05895058 13.02734375 1.97265625 C15 2 15 2 18 3 C17.505 1.515 17.505 1.515 17 0 C20.3 0 23.6 0 27 0 C24.69412696 2.30587304 23.22901367 2.68287595 20.125 3.5625 C18.82949219 3.93568359 18.82949219 3.93568359 17.5078125 4.31640625 C16.26644531 4.65478516 16.26644531 4.65478516 15 5 C14.38398926 5.17418457 13.76797852 5.34836914 13.13330078 5.52783203 C0.03548536 8.42679919 -14.43585496 6.03204654 -27 2 C-27 1.67 -27 1.34 -27 1 C-16.44191344 0.6309795 -16.44191344 0.6309795 -12 3 C-11.67 2.34 -11.34 1.68 -11 1 C-5.555 1.495 -5.555 1.495 0 2 C0 1.34 0 0.68 0 0 Z " fill="#FB7922" transform="translate(214,245)"/>
<path d="M0 0 C2.36067291 1.9695555 4.68573187 3.97616791 7 6 C7.90878906 6.77150391 7.90878906 6.77150391 8.8359375 7.55859375 C10.5 9.0625 10.5 9.0625 13 12 C12.875 14.875 12.875 14.875 12 17 C11.01 17.33 10.02 17.66 9 18 C9.66 20.64 10.32 23.28 11 26 C10.34 26 9.68 26 9 26 C9 27.98 9 29.96 9 32 C8.67 32 8.34 32 8 32 C8.13921875 31.34515625 8.2784375 30.6903125 8.421875 30.015625 C8.89207587 26.05250337 9.19309906 22.72089206 6.82226562 19.30126953 C3.52149305 15.53774159 -0.19590625 12.24366923 -4 9 C-3.36578125 8.88785156 -2.7315625 8.77570313 -2.078125 8.66015625 C-1.39234375 8.44230469 -0.7065625 8.22445312 0 8 C1.29660434 5.50965614 1.29660434 5.50965614 2 3 C1.34 3 0.68 3 0 3 C0 2.01 0 1.02 0 0 Z " fill="#F8771B" transform="translate(289,205)"/>
<path d="M0 0 C0.30207788 3.85149295 0.27624851 6.40983272 -1.375 9.9375 C-4.86161827 12.67698578 -7.33446717 12.52078836 -11.66015625 12.46875 C-14.43842471 11.91216867 -15.06321213 10.97246554 -17 9 C-19.27161255 8.42676193 -19.27161255 8.42676193 -21.6875 8.3125 C-22.49574219 8.24675781 -23.30398438 8.18101562 -24.13671875 8.11328125 C-24.75160156 8.07589844 -25.36648438 8.03851563 -26 8 C-26.33 8.66 -26.66 9.32 -27 10 C-27 9.01 -27 8.02 -27 7 C-24.03 7 -21.06 7 -18 7 C-17.67 6.01 -17.34 5.02 -17 4 C-16.26394531 3.96261719 -15.52789062 3.92523438 -14.76953125 3.88671875 C-9.80970672 3.55256941 -4.03757393 0 0 0 Z " fill="#D6D4CD" transform="translate(397,323)"/>
<path d="M0 0 C0.47567568 7.13513514 0.47567568 7.13513514 -1.375 10.5 C-5.35582016 12.77475438 -9.51994184 12.83019442 -14 12 C-15.01036185 11.01047035 -16.01047035 10.01036185 -17 9 C-19.27161255 8.42676193 -19.27161255 8.42676193 -21.6875 8.3125 C-22.49574219 8.24675781 -23.30398437 8.18101562 -24.13671875 8.11328125 C-24.75160156 8.07589844 -25.36648437 8.03851563 -26 8 C-26.33 8.66 -26.66 9.32 -27 10 C-27 9.01 -27 8.02 -27 7 C-26.04287109 6.92652344 -26.04287109 6.92652344 -25.06640625 6.8515625 C-24.24011719 6.77679688 -23.41382813 6.70203125 -22.5625 6.625 C-21.73878906 6.55539062 -20.91507813 6.48578125 -20.06640625 6.4140625 C-19.38449219 6.27742188 -18.70257813 6.14078125 -18 6 C-17.67 5.34 -17.34 4.68 -17 4 C-15.2675 4.12375 -15.2675 4.12375 -13.5 4.25 C-9.17638886 4.28082789 -6.28690519 2.97187612 -2.56640625 0.875 C-1 0 -1 0 0 0 Z " fill="#D7D4CE" transform="translate(234,323)"/>
<path d="M0 0 C0.66 0.66 1.32 1.32 2 2 C1.625 4.125 1.625 4.125 1 6 C1.99 6 2.98 6 4 6 C4 16.89 4 27.78 4 39 C2.515 39.495 2.515 39.495 1 40 C-0.21500905 36.35497286 -0.25013006 32.92208259 -0.3515625 29.12109375 C-0.37471527 28.35322037 -0.39786804 27.58534698 -0.42172241 26.79420471 C-0.46929401 25.17284546 -0.5145362 23.55141643 -0.55761719 21.92993164 C-0.62484455 19.44324983 -0.70257604 16.95704607 -0.78125 14.47070312 C-0.8261551 12.89585129 -0.87044687 11.32098182 -0.9140625 9.74609375 C-0.93796051 9.00024521 -0.96185852 8.25439667 -0.98648071 7.48594666 C-1.11481707 2.22963415 -1.11481707 2.22963415 0 0 Z " fill="#ECE8E2" transform="translate(239,184)"/>
<path d="M0 0 C2 2 2 2 2.3125 5.4375 C2 9 2 9 0.9375 11 C-2.22796524 12.63378851 -4.65020286 11.85267564 -8 11 C-10.15502531 7.76746204 -10.46856135 6.74849077 -10 3 C-7.65916893 -0.99318242 -4.22752593 -0.38432054 0 0 Z " fill="#EDE5DD" transform="translate(326,185)"/>
<path d="M0 0 C3.0625 0.25 3.0625 0.25 6.0625 2.25 C6.43581109 5.67201828 6.70013183 8.15185629 4.9375 11.1875 C2.14087528 12.77225401 0.2131804 12.70947423 -2.9375 12.25 C-4.875 10.625 -4.875 10.625 -5.9375 8.25 C-5.65033825 3.46397089 -5.27943798 0.44931387 0 0 Z " fill="#EEE1D5" transform="translate(310.9375,226.75)"/>
<path d="M0 0 C0.66 0.66 1.32 1.32 2 2 C1.625 5.625 1.625 5.625 1 9 C0.236875 8.360625 -0.52625 7.72125 -1.3125 7.0625 C-5.57299632 3.79281678 -9.35044066 3.80571129 -14.51171875 3.68359375 C-15.23994339 3.66281265 -15.96816803 3.64203156 -16.71846008 3.62062073 C-19.04137875 3.55531254 -21.36440906 3.49632763 -23.6875 3.4375 C-25.26368335 3.39429695 -26.83985548 3.35068208 -28.41601562 3.30664062 C-32.27722975 3.1996504 -36.13855603 3.09833039 -40 3 C-40 2.67 -40 2.34 -40 2 C-38.35 1.67 -36.7 1.34 -35 1 C-35 0.67 -35 0.34 -35 0 C-31.04217694 -0.19947428 -27.08374621 -0.38235481 -23.125 -0.5625 C-22.01640625 -0.61857422 -20.9078125 -0.67464844 -19.765625 -0.73242188 C-5.99509361 -1.33994532 -5.99509361 -1.33994532 0 0 Z " fill="#EEE1D2" transform="translate(293,200)"/>
<path d="M0 0 C0.33 0 0.66 0 1 0 C1.33 5.61 1.66 11.22 2 17 C3.155 15.515 4.31 14.03 5.5 12.5 C9.28075787 8.18588521 9.28075787 8.18588521 12.3125 7.40234375 C14.5 7.4375 14.5 7.4375 18 8 C15.1686587 13.6626826 12.01243959 17.15619099 7 21 C7 19.68 7 18.36 7 17 C6.05125 17.495 5.1025 17.99 4.125 18.5 C1 20 1 20 -1 20 C-0.67 13.4 -0.34 6.8 0 0 Z " fill="#F78437" transform="translate(252,213)"/>
<path d="M0 0 C0.99 0.66 1.98 1.32 3 2 C3.375 5.5 3.375 5.5 3 9 C-0.46923881 11.31282587 -1.92205575 11.42478586 -6 11 C-7.875 9.8125 -7.875 9.8125 -9 8 C-9.42822025 5.14519831 -9.40659584 3.65507108 -7.875 1.1875 C-5.15523346 -0.53501881 -3.15413751 -0.32855599 0 0 Z " fill="#EDE1D0" transform="translate(322,139)"/>
<path d="M0 0 C0.31424507 3.45669582 0.37956836 5.39901677 -1.5 8.375 C-5.201708 10.7811102 -7.62688032 10.42320513 -12 10 C-12.66 9.34 -13.32 8.68 -14 8 C-13.8125 5.5 -13.8125 5.5 -13 3 C-8.72816203 0.15210802 -5.07638947 0 0 0 Z " fill="#D9D6CF" transform="translate(153,312)"/>
<path d="M0 0 C0.99 0.33 1.98 0.66 3 1 C3.33 1.99 3.66 2.98 4 4 C3.34 4 2.68 4 2 4 C1.34 2.68 0.68 1.36 0 0 Z M-1 3 C2 4 2 4 2.984375 5.9609375 C3.23703125 6.75757813 3.4896875 7.55421875 3.75 8.375 C4.01296875 9.16648438 4.2759375 9.95796875 4.546875 10.7734375 C5 13 5 13 4 16 C3.87625 16.70125 3.7525 17.4025 3.625 18.125 C3.41875 18.74375 3.2125 19.3625 3 20 C2.01 20.33 1.02 20.66 0 21 C-0.804375 21.350625 -1.60875 21.70125 -2.4375 22.0625 C-5 23 -5 23 -9 23 C-8.67 21.02 -8.34 19.04 -8 17 C-4.535 16.505 -4.535 16.505 -1 16 C-1 11.71 -1 7.42 -1 3 Z " fill="#FB7311" transform="translate(326,135)"/>
<path d="M0 0 C2.875 2.3125 2.875 2.3125 5 5 C5 5.99 5 6.98 5 8 C-0.28 8 -5.56 8 -11 8 C-10 3 -10 3 -8.3125 1.1875 C-5.21737291 -0.40188959 -3.43979993 -0.56159999 0 0 Z " fill="#DDDAD4" transform="translate(270,299)"/>
<path d="M0 0 C1.67542976 0.28604898 3.34385343 0.61781233 5 1 C3.34136495 5.32504836 0.128959 8.09418825 -3.125 11.25 C-3.68832031 11.80429688 -4.25164062 12.35859375 -4.83203125 12.9296875 C-6.21686028 14.29104485 -7.60783204 15.64614859 -9 17 C-9.33 15.68 -9.66 14.36 -10 13 C-9.34 13 -8.68 13 -8 13 C-7.9175 12.236875 -7.835 11.47375 -7.75 10.6875 C-6.83329524 7.40264129 -5.7277289 6.90114438 -3 5 C-1.80767387 2.94996045 -1.80767387 2.94996045 -1 1 C-0.67 0.67 -0.34 0.34 0 0 Z " fill="#EFDFD2" transform="translate(300,148)"/>
<path d="M0 0 C1.5 1 1.5 1 3 3 C3.74592848 9.39367271 2.64836258 12.7420657 -1 18 C-1.66 18.33 -2.32 18.66 -3 19 C-3.33 17.68 -3.66 16.36 -4 15 C-5.65 14.67 -7.3 14.34 -9 14 C-8.34 13.01 -7.68 12.02 -7 11 C-6.61500109 9.34450469 -6.27206865 7.6777567 -6 6 C-5.67 6 -5.34 6 -5 6 C-5 8.31 -5 10.62 -5 13 C-4.34 12.67 -3.68 12.34 -3 12 C-2.53476937 10.10466658 -2.53476937 10.10466658 -2.375 7.9375 C-2.25125 6.638125 -2.1275 5.33875 -2 4 C-1.67 4 -1.34 4 -1 4 C-0.67 5.65 -0.34 7.3 0 9 C0.66 9 1.32 9 2 9 C2 8.01 2 7.02 2 6 C1.34 6 0.68 6 0 6 C0 4.02 0 2.04 0 0 Z " fill="#F87B29" transform="translate(323,225)"/>
<path d="M0 0 C9.57 0.33 19.14 0.66 29 1 C27 3 27 3 24.66162109 3.22705078 C23.70852051 3.21657715 22.75541992 3.20610352 21.7734375 3.1953125 C20.2265625 3.18564453 20.2265625 3.18564453 18.6484375 3.17578125 C17.56820313 3.15902344 16.48796875 3.14226562 15.375 3.125 C14.28703125 3.11597656 13.1990625 3.10695312 12.078125 3.09765625 C9.38519848 3.07403409 6.69270745 3.04109556 4 3 C4.33 3.66 4.66 4.32 5 5 C2.36 4.67 -0.28 4.34 -3 4 C-3 3.34 -3 2.68 -3 2 C-2.01 2 -1.02 2 0 2 C0 1.34 0 0.68 0 0 Z " fill="#EBE8E0" transform="translate(254,168)"/>
<path d="M0 0 C-0.99 0.66 -1.98 1.32 -3 2 C-3.2502157 5.08365871 -3.2502157 5.08365871 -3 8 C-4.98 8.33 -6.96 8.66 -9 9 C-9 7.68 -9 6.36 -9 5 C-9.66 5 -10.32 5 -11 5 C-11 4.34 -11 3.68 -11 3 C-12.32 3.33 -13.64 3.66 -15 4 C-11.3460697 -1.5678938 -5.94143168 -0.36877852 0 0 Z " fill="#FA7B28" transform="translate(324,131)"/>
<path d="M0 0 C0 0.66 0 1.32 0 2 C-0.99 2 -1.98 2 -3 2 C-3 2.66 -3 3.32 -3 4 C-2.4225 3.773125 -1.845 3.54625 -1.25 3.3125 C1 3 1 3 3.25 4.4375 C3.8275 4.953125 4.405 5.46875 5 6 C4.45730469 6.26554688 3.91460937 6.53109375 3.35546875 6.8046875 C2.64003906 7.15789062 1.92460937 7.51109375 1.1875 7.875 C0.12595703 8.39707031 0.12595703 8.39707031 -0.95703125 8.9296875 C-3.21246418 10.0656486 -3.21246418 10.0656486 -6 12 C-6 11.01 -6 10.02 -6 9 C-5.34 9 -4.68 9 -4 9 C-4 8.34 -4 7.68 -4 7 C-4.66 7 -5.32 7 -6 7 C-6 6.34 -6 5.68 -6 5 C-6.66 4.67 -7.32 4.34 -8 4 C-2.25 0 -2.25 0 0 0 Z " fill="#EFDECE" transform="translate(254,168)"/>
<path d="M0 0 C2.5 0.25 2.5 0.25 4.5 2.25 C4.83333333 3.91666667 5.16666667 5.58333333 5.5 7.25 C6.16 7.91 6.82 8.57 7.5 9.25 C6.84 9.25 6.18 9.25 5.5 9.25 C5.17 9.91 4.84 10.57 4.5 11.25 C1.53 8.28 -1.44 5.31 -4.5 2.25 C-2.5 0.25 -2.5 0.25 0 0 Z " fill="#F0E2D6" transform="translate(298.5,207.75)"/>
<path d="M0 0 C0.33 1.32 0.66 2.64 1 4 C-2.82320557 5.42258812 -5.91281305 6.24042276 -10 6 C-8.68 5.67 -7.36 5.34 -6 5 C-6 4.01 -6 3.02 -6 2 C-6.99 2 -7.98 2 -9 2 C-9 2.66 -9 3.32 -9 4 C-9.99 3.67 -10.98 3.34 -12 3 C-12 2.34 -12 1.68 -12 1 C-7.58774263 -0.47075246 -4.51718381 -1.36884358 0 0 Z " fill="#FC7310" transform="translate(319,240)"/>
<path d="M0 0 C4.38971924 1.47683863 7.77141386 3.8550929 11.375 6.6875 C11.94500732 7.13013184 12.51501465 7.57276367 13.10229492 8.02880859 C17.39166258 11.40727365 21.26756041 15.00715765 25 19 C24.67 19.66 24.34 20.32 24 21 C22.90945312 19.96552734 22.90945312 19.96552734 21.796875 18.91015625 C15.54495503 13.04609852 9.15898929 7.6914769 2.203125 2.6796875 C1.47609375 2.12539062 0.7490625 1.57109375 0 1 C0 0.67 0 0.34 0 0 Z " fill="#F0D0B8" transform="translate(178,79)"/>
<path d="M0 0 C2.625 0.375 2.625 0.375 5 1 C5.625 3.375 5.625 3.375 6 6 C5.34 6.66 4.68 7.32 4 8 C1.375 7.625 1.375 7.625 -1 7 C-1.625 4.625 -1.625 4.625 -2 2 C-1.34 1.34 -0.68 0.68 0 0 Z " fill="#F6C9A8" transform="translate(181,211)"/>
<path d="M0 0 C0.68707555 2.49064888 1 4.37886292 1 7 C0.01 7 -0.98 7 -2 7 C-2 7.66 -2 8.32 -2 9 C-2.66 9 -3.32 9 -4 9 C-4 8.01 -4 7.02 -4 6 C-11.92 6 -19.84 6 -28 6 C-28 5.67 -28 5.34 -28 5 C-27.3294458 4.9906543 -26.6588916 4.98130859 -25.96801758 4.97167969 C-22.91544433 4.91783404 -19.86438018 4.83421505 -16.8125 4.75 C-15.75740234 4.73582031 -14.70230469 4.72164062 -13.61523438 4.70703125 C-7.35366556 4.54865863 -7.35366556 4.54865863 -1.76171875 1.953125 C-1.18035156 1.30859375 -0.59898437 0.6640625 0 0 Z " fill="#F6873F" transform="translate(287,168)"/>
<path d="M0 0 C0.99 0.495 0.99 0.495 2 1 C2 4.63 2 8.26 2 12 C3.32 10.68 4.64 9.36 6 8 C6.33 8.99 6.66 9.98 7 11 C5.8203125 12.82421875 5.8203125 12.82421875 4.125 14.6875 C3.29355469 15.62142578 3.29355469 15.62142578 2.4453125 16.57421875 C1 18 1 18 0 18 C0 12.06 0 6.12 0 0 Z " fill="#F0E1D6" transform="translate(253,213)"/>
<path d="M0 0 C3 0.25 3 0.25 5 2.25 C5 3.57 5 4.89 5 6.25 C2.33333333 6.25 -0.33333333 6.25 -3 6.25 C-3.99 6.745 -3.99 6.745 -5 7.25 C-5.125 4.875 -5.125 4.875 -5 2.25 C-3 0.25 -3 0.25 0 0 Z " fill="#EBE7DC" transform="translate(319,138.75)"/>
<path d="M0 0 C0.99 0.66 1.98 1.32 3 2 C5.28648848 2.24107326 5.28648848 2.24107326 7.6875 2.125 C8.49574219 2.10695312 9.30398438 2.08890625 10.13671875 2.0703125 C10.75160156 2.04710937 11.36648438 2.02390625 12 2 C12 2.66 12 3.32 12 4 C9.04335481 5.4783226 6.25770263 5.06032783 3 5 C2.67 5.99 2.34 6.98 2 8 C0.68 7.67 -0.64 7.34 -2 7 C-2.125 4.625 -2.125 4.625 -2 2 C-1.34 1.34 -0.68 0.68 0 0 Z " fill="#FB740E" transform="translate(316,195)"/>
<path d="M0 0 C0.33 0.99 0.66 1.98 1 3 C0.01 3.495 0.01 3.495 -1 4 C-0.67 2.68 -0.34 1.36 0 0 Z M-7 0 C-6.34 0.99 -5.68 1.98 -5 3 C-4.34 2.67 -3.68 2.34 -3 2 C-3 2.66 -3 3.32 -3 4 C-2.34 4.33 -1.68 4.66 -1 5 C-1.66 5 -2.32 5 -3 5 C-2.34 7.64 -1.68 10.28 -1 13 C-1.66 13 -2.32 13 -3 13 C-3 14.98 -3 16.96 -3 19 C-3.33 19 -3.66 19 -4 19 C-3.93039062 18.28714844 -3.86078125 17.57429688 -3.7890625 16.83984375 C-3.48691177 11.49465338 -3.35602096 7.96971552 -7 3.8125 C-7.97487914 2.84890418 -8.96689675 1.90089063 -10 1 C-9.01 0.67 -8.02 0.34 -7 0 Z " fill="#F58437" transform="translate(301,218)"/>
<path d="M0 0 C1.32 0 2.64 0 4 0 C4 0.99 4 1.98 4 3 C16.87 3.495 16.87 3.495 30 4 C30 4.33 30 4.66 30 5 C19.77 5 9.54 5 -1 5 C-0.67 3.35 -0.34 1.7 0 0 Z " fill="#E7E9E2" transform="translate(254,197)"/>
<path d="M0 0 C2 1 2 1 2.81640625 3.36328125 C3.06261719 4.33652344 3.30882812 5.30976563 3.5625 6.3125 C3.81128906 7.27800781 4.06007812 8.24351562 4.31640625 9.23828125 C4.54199219 10.14964844 4.76757812 11.06101563 5 12 C5.29197266 13.16595703 5.29197266 13.16595703 5.58984375 14.35546875 C5.72519531 14.89816406 5.86054688 15.44085938 6 16 C4.68 15.67 3.36 15.34 2 15 C0.2520497 9.75614911 -0.19392201 5.52677733 0 0 Z M-1 11 C-0.01 12.485 -0.01 12.485 1 14 C0.34 14 -0.32 14 -1 14 C-1 13.01 -1 12.02 -1 11 Z " fill="#EDDECD" transform="translate(140,191)"/>
<path d="M0 0 C0.33 0.99 0.66 1.98 1 3 C1.99 3.33 2.98 3.66 4 4 C3.49701212 8.40114397 1.91227269 10.71195019 -1 14 C-1 12.68 -1 11.36 -1 10 C-1.66 9.67 -2.32 9.34 -3 9 C-2.34 9 -1.68 9 -1 9 C-1.20625 8.2575 -1.4125 7.515 -1.625 6.75 C-2.04408751 3.67669159 -1.61949011 2.57213134 0 0 Z " fill="#F77823" transform="translate(218,85)"/>
<path d="M0 0 C0.99 0.33 1.98 0.66 3 1 C2.835 1.680625 2.67 2.36125 2.5 3.0625 C1.89862123 6.0989754 1.89862123 6.0989754 2 9.625 C2 13 2 13 1 16 C0.01 16.33 -0.98 16.66 -2 17 C-1.85848172 14.9163691 -1.71162064 12.83310062 -1.5625 10.75 C-1.48128906 9.58984375 -1.40007812 8.4296875 -1.31640625 7.234375 C-1.06752213 4.69022624 -0.71885058 2.44046752 0 0 Z " fill="#FD730F" transform="translate(303,225)"/>
<path d="M0 0 C0.86625 0.556875 0.86625 0.556875 1.75 1.125 C1.75 3.435 1.75 5.745 1.75 8.125 C0.76 7.465 -0.23 6.805 -1.25 6.125 C-2.57 6.125 -3.89 6.125 -5.25 6.125 C-5.58 4.475 -5.91 2.825 -6.25 1.125 C-2.80384615 -1.09038462 -2.80384615 -1.09038462 0 0 Z " fill="#F97614" transform="translate(334.25,182.875)"/>
<path d="M0 0 C2.625 0.375 2.625 0.375 5 1 C5.042721 2.66611905 5.04063832 4.33382885 5 6 C4 7 4 7 1.4375 7.0625 C0.2309375 7.0315625 0.2309375 7.0315625 -1 7 C-1.625 4.625 -1.625 4.625 -2 2 C-1.34 1.34 -0.68 0.68 0 0 Z " fill="#F1DAC8" transform="translate(246,153)"/>
<path d="M0 0 C2.67710191 1.33855096 2.95129094 2.72058088 4.125 5.4375 C4.47820312 6.24058594 4.83140625 7.04367188 5.1953125 7.87109375 C6 10 6 10 6 12 C4.35 12.33 2.7 12.66 1 13 C-0.32229189 10.35541621 -0.09677194 8.32238699 -0.0625 5.375 C-0.05347656 4.37210937 -0.04445312 3.36921875 -0.03515625 2.3359375 C-0.02355469 1.56507812 -0.01195312 0.79421875 0 0 Z " fill="#EFDDCE" transform="translate(155,71)"/>
<path d="M0 0 C0.33 0.66 0.66 1.32 1 2 C1.66 2 2.32 2 3 2 C3 3.65 3 5.3 3 7 C3.66 7.33 4.32 7.66 5 8 C3.02 8.99 3.02 8.99 1 10 C0 6.125 0 6.125 0 5 C-0.33 7.97 -0.66 10.94 -1 14 C-1.33 14 -1.66 14 -2 14 C-2.05437607 12.41705218 -2.09296271 10.83355744 -2.125 9.25 C-2.14820313 8.36828125 -2.17140625 7.4865625 -2.1953125 6.578125 C-1.99139502 3.8864142 -1.36551721 2.30095026 0 0 Z " fill="#F1D9C8" transform="translate(239,181)"/>
<path d="M0 0 C0.33 0.66 0.66 1.32 1 2 C1.66 2 2.32 2 3 2 C2 5 2 5 -1 7 C-1.99 8.485 -1.99 8.485 -3 10 C-3.33 9.34 -3.66 8.68 -4 8 C-4.99 7.67 -5.98 7.34 -7 7 C-4.69 4.69 -2.38 2.38 0 0 Z " fill="#EFE1D3" transform="translate(295,173)"/>
<path d="M0 0 C4.13621084 3.3810038 7.81316569 6.66590534 11 11 C7.81390075 10.64598897 6.20933322 10.16972964 3.6875 8.125 C2 6 2 6 2 3 C1.34 3 0.68 3 0 3 C0 2.01 0 1.02 0 0 Z " fill="#F57B26" transform="translate(289,205)"/>
<path d="M0 0 C-0.33 1.65 -0.66 3.3 -1 5 C-2.32 5 -3.64 5 -5 5 C-5.33 5.99 -5.66 6.98 -6 8 C-7.65 7.67 -9.3 7.34 -11 7 C-4.48275862 0 -4.48275862 0 0 0 Z " fill="#F87B25" transform="translate(179,112)"/>
<path d="M0 0 C0.33 0 0.66 0 1 0 C1.19477739 1.62414378 1.38059458 3.24936423 1.5625 4.875 C1.66691406 5.77992188 1.77132813 6.68484375 1.87890625 7.6171875 C2 10 2 10 1 12 C1.66 12.33 2.32 12.66 3 13 C-1.625 15.125 -1.625 15.125 -5 14 C-4.360625 13.54625 -3.72125 13.0925 -3.0625 12.625 C-0.01774843 8.74986164 -0.18350135 4.8077353 0 0 Z " fill="#F47F2F" transform="translate(305,141)"/>
<path d="M0 0 C1.67542976 0.28604898 3.34385343 0.61781233 5 1 C4.67 2.65 4.34 4.3 4 6 C2.35 6 0.7 6 -1 6 C-1.042721 4.33388095 -1.04063832 2.66617115 -1 1 C-0.67 0.67 -0.34 0.34 0 0 Z " fill="#EFDBCA" transform="translate(170,150)"/>
<path d="M0 0 C2.97 0 5.94 0 9 0 C8.01 0.33 7.02 0.66 6 1 C6 1.66 6 2.32 6 3 C5.34 3 4.68 3 4 3 C4 4.65 4 6.3 4 8 C2 6.25 2 6.25 0 4 C0 2.68 0 1.36 0 0 Z " fill="#343430" transform="translate(208,331)"/>
<path d="M0 0 C1.65 0 3.3 0 5 0 C2.19372222 4.74908547 -0.25091453 7.19372222 -5 10 C-3.33333333 6.66666667 -1.66666667 3.33333333 0 0 Z " fill="#EDD5BF" transform="translate(234,234)"/>
<path d="M0 0 C2.91517292 1.07401108 4.77810176 1.77810176 7 4 C7 4.99 7 5.98 7 7 C4.5 8.6875 4.5 8.6875 2 10 C2 7.36 2 4.72 2 2 C1.01 1.67 0.02 1.34 -1 1 C-0.67 0.67 -0.34 0.34 0 0 Z " fill="#F37A29" transform="translate(226,75)"/>
<path d="M0 0 C0.99 0 1.98 0 3 0 C3 4.62 3 9.24 3 14 C2.01 13.67 1.02 13.34 0 13 C0 11.35 0 9.7 0 8 C0.66 8 1.32 8 2 8 C1.34 5.36 0.68 2.72 0 0 Z " fill="#FD730E" transform="translate(298,223)"/>
<path d="M0 0 C2.05078125 0.03255208 4.1015625 0.06510417 6.15234375 0.09765625 C2.40234375 6.97265625 2.40234375 6.97265625 0.15234375 8.09765625 C0.17296875 7.29328125 0.19359375 6.48890625 0.21484375 5.66015625 C0.44867996 3.1641074 0.44867996 3.1641074 -0.84765625 2.09765625 C-1.50765625 1.76765625 -2.16765625 1.43765625 -2.84765625 1.09765625 C-1.84765625 0.09765625 -1.84765625 0.09765625 0 0 Z " fill="#F57E2E" transform="translate(263.84765625,220.90234375)"/>
<path d="M0 0 C0.33 0.66 0.66 1.32 1 2 C0.37351562 2.09796875 -0.25296875 2.1959375 -0.8984375 2.296875 C-1.71570313 2.44640625 -2.53296875 2.5959375 -3.375 2.75 C-4.18710937 2.88921875 -4.99921875 3.0284375 -5.8359375 3.171875 C-8.17709092 3.81749261 -8.17709092 3.81749261 -9.2890625 6.078125 C-9.52367187 6.71234375 -9.75828125 7.3465625 -10 8 C-10.21917317 5.29686424 -10.32851983 3.56041618 -8.9375 1.1875 C-6.00731249 -0.60842137 -3.3527047 -0.18977574 0 0 Z " fill="#F1DFCE" transform="translate(326,185)"/>
<path d="M0 0 C0.66 0.33 1.32 0.66 2 1 C1.67 1.556875 1.34 2.11375 1 2.6875 C-0.1309601 5.30284522 -0.15662974 7.1806646 0 10 C-2.97 9.67 -5.94 9.34 -9 9 C-9 8.67 -9 8.34 -9 8 C-7.02 7.67 -5.04 7.34 -3 7 C-2.814375 5.824375 -2.814375 5.824375 -2.625 4.625 C-2 2 -2 2 0 0 Z " fill="#F97B29" transform="translate(313,179)"/>
<path d="M0 0 C0.99 0.33 1.98 0.66 3 1 C2 3 2 3 0 4 C-0.65555119 6.52733235 -0.65555119 6.52733235 -1 9 C-2.7074998 7.71937515 -4.37373596 6.38232443 -6 5 C-6 4.34 -6 3.68 -6 3 C-4.68 3 -3.36 3 -2 3 C-1.34 2.01 -0.68 1.02 0 0 Z " fill="#F47E2C" transform="translate(315,193)"/>
<path d="M0 0 C8.28947368 1.28947368 8.28947368 1.28947368 11 4 C11 4.99 11 5.98 11 7 C6.00724943 5.72278474 3.42388092 3.82669043 0 0 Z " fill="#F5843B" transform="translate(172,94)"/>
<path d="M0 0 C0.66 0.33 1.32 0.66 2 1 C1.6875 2.9375 1.6875 2.9375 1 5 C0.01 5.33 -0.98 5.66 -2 6 C-2.99 7.485 -2.99 7.485 -4 9 C-4.99 8.67 -5.98 8.34 -7 8 C-6.02133662 6.85373678 -5.04205413 5.70800212 -4.0625 4.5625 C-3.51722656 3.92441406 -2.97195312 3.28632812 -2.41015625 2.62890625 C-1.63204305 1.73008851 -0.84063472 0.84063472 0 0 Z " fill="#F1E0CF" transform="translate(231,82)"/>
<path d="M0 0 C0.99 0.33 1.98 0.66 3 1 C2.01 2.485 2.01 2.485 1 4 C1.33 4.99 1.66 5.98 2 7 C1.34 7 0.68 7 0 7 C0 6.34 0 5.68 0 5 C-0.928125 5.309375 -0.928125 5.309375 -1.875 5.625 C-2.57625 5.74875 -3.2775 5.8725 -4 6 C-4.66 5.34 -5.32 4.68 -6 4 C-5.01 3.01 -4.02 2.02 -3 1 C-2.67 1.66 -2.34 2.32 -2 3 C-1.34 2.01 -0.68 1.02 0 0 Z " fill="#FD730D" transform="translate(292,167)"/>
<path d="M0 0 C0.66 0.33 1.32 0.66 2 1 C1.34 3.31 0.68 5.62 0 8 C-1.32 7.67 -2.64 7.34 -4 7 C-4 5.68 -4 4.36 -4 3 C-2 1.25 -2 1.25 0 0 Z " fill="#F88232" transform="translate(207,96)"/>
<path d="M0 0 C4.49014624 1.49671541 8.47848764 3.83368341 12 7 C12 7.66 12 8.32 12 9 C8.98472262 7.59422879 6.4052059 5.93873852 3.75 3.9375 C3.04359375 3.41027344 2.3371875 2.88304688 1.609375 2.33984375 C1.07828125 1.89769531 0.5471875 1.45554687 0 1 C0 0.67 0 0.34 0 0 Z " fill="#F1B188" transform="translate(178,79)"/>
<path d="M0 0 C3.3 0 6.6 0 10 0 C7.07034088 2.92965912 4.319947 3.94133569 0.1875 4.125 C-0.534375 4.08375 -1.25625 4.0425 -2 4 C-1.01 3.67 -0.02 3.34 1 3 C0.67 2.01 0.34 1.02 0 0 Z " fill="#F58130" transform="translate(231,245)"/>
<path d="M0 0 C3.68802044 1.22934015 4.72356973 2.93859378 7 6 C6.34 7.32 5.68 8.64 5 10 C4.16121545 8.71186658 3.32913217 7.41936744 2.5 6.125 C2.0359375 5.40570313 1.571875 4.68640625 1.09375 3.9453125 C0 2 0 2 0 0 Z " fill="#F67D2E" transform="translate(147,209)"/>
<path d="M0 0 C1.98 0.495 1.98 0.495 4 1 C3.67 2.32 3.34 3.64 3 5 C1.68 5 0.36 5 -1 5 C-0.67 3.35 -0.34 1.7 0 0 Z " fill="#F0DBC5" transform="translate(162,180)"/>
<path d="M0 0 C1.98 0.495 1.98 0.495 4 1 C3.67 2.32 3.34 3.64 3 5 C1.68 5 0.36 5 -1 5 C-0.67 3.35 -0.34 1.7 0 0 Z " fill="#EEDAC9" transform="translate(194,125)"/>
<path d="M0 0 C2.31 0 4.62 0 7 0 C7 0.66 7 1.32 7 2 C8.98 2 10.96 2 13 2 C13 2.33 13 2.66 13 3 C11.39667209 3.08121924 9.79215974 3.13929134 8.1875 3.1875 C7.29417969 3.22230469 6.40085937 3.25710937 5.48046875 3.29296875 C2.58352485 2.95081002 1.77444972 2.24606427 0 0 Z " fill="#F58741" transform="translate(314,202)"/>
<path d="M0 0 C0.99 0.495 0.99 0.495 2 1 C2.59355614 3.64860427 2.74209269 6.29197322 3 9 C2.01 9.33 1.02 9.66 0 10 C0 6.7 0 3.4 0 0 Z " fill="#F1D5C3" transform="translate(140,191)"/>
<path d="M0 0 C0.33 0.99 0.66 1.98 1 3 C1.99 3.33 2.98 3.66 4 4 C4 4.66 4 5.32 4 6 C2.35 6.33 0.7 6.66 -1 7 C-2 4 -2 4 -1.0625 1.8125 C-0.5365625 0.9153125 -0.5365625 0.9153125 0 0 Z " fill="#FC720D" transform="translate(218,85)"/>
<path d="M0 0 C1.62463842 -0.05395478 3.24978541 -0.09277195 4.875 -0.125 C5.77992188 -0.14820313 6.68484375 -0.17140625 7.6171875 -0.1953125 C10 0 10 0 12 2 C7.48281619 3.36884358 4.41225737 2.47075246 0 1 C0 0.67 0 0.34 0 0 Z " fill="#F97C2A" transform="translate(187,246)"/>
<path d="M0 0 C1.98 0.495 1.98 0.495 4 1 C3.67 2.32 3.34 3.64 3 5 C1.68 5 0.36 5 -1 5 C-0.67 3.35 -0.34 1.7 0 0 Z " fill="#E9E6E0" transform="translate(181,213)"/>
<path d="M0 0 C0.66 0.99 1.32 1.98 2 3 C1.01 3.66 0.02 4.32 -1 5 C-1.99 6.485 -1.99 6.485 -3 8 C-3.66 8 -4.32 8 -5 8 C-3.8141763 4.62496331 -2.72426311 2.35277269 0 0 Z " fill="#EEDAC1" transform="translate(245,173)"/>
<path d="M0 0 C1.65 0.33 3.3 0.66 5 1 C5 1.99 5 2.98 5 4 C2.13822943 5.43088528 0.06624227 4.59991697 -3 4 C-3 3.34 -3 2.68 -3 2 C-2.01 2 -1.02 2 0 2 C0 1.34 0 0.68 0 0 Z " fill="#E5EBE6" transform="translate(254,168)"/>
<path d="M0 0 C0 3 0 3 -1.75 5.1875 C-4 7 -4 7 -8 7 C-8 6.34 -8 5.68 -8 5 C-7.05125 4.54625 -6.1025 4.0925 -5.125 3.625 C-1.99686321 2.19761746 -1.99686321 2.19761746 0 0 Z " fill="#F1DDCA" transform="translate(330,153)"/>
<path d="M0 0 C0.61875 0.350625 1.2375 0.70125 1.875 1.0625 C2.57625 1.371875 3.2775 1.68125 4 2 C4.66 1.67 5.32 1.34 6 1 C5.67 2.32 5.34 3.64 5 5 C4.34 5 3.68 5 3 5 C2.67 5.66 2.34 6.32 2 7 C0 5 0 5 -0.125 2.375 C-0.08375 1.59125 -0.0425 0.8075 0 0 Z " fill="#F5D8CA" transform="translate(313,142)"/>
<path d="M0 0 C0.66 0 1.32 0 2 0 C1.67 1.65 1.34 3.3 1 5 C0.34 5 -0.32 5 -1 5 C-1.33 5.66 -1.66 6.32 -2 7 C-2.66 7 -3.32 7 -4 7 C-2.79618552 4.50638429 -1.54571278 2.31856917 0 0 Z " fill="#F87E2B" transform="translate(221,79)"/>
<path d="M0 0 C0.99 0.33 1.98 0.66 3 1 C2.67 1.99 2.34 2.98 2 4 C0.0625 4.8125 0.0625 4.8125 -2 5 C-2.66 4.34 -3.32 3.68 -4 3 C-3.34 3 -2.68 3 -2 3 C-2 2.34 -2 1.68 -2 1 C-1.34 0.67 -0.68 0.34 0 0 Z " fill="#F1DDD2" transform="translate(188,65)"/>
<path d="M0 0 C0 0.99 0 1.98 0 3 C-2.875 3.125 -2.875 3.125 -6 3 C-6.66 2.34 -7.32 1.68 -8 1 C-3.375 -1.125 -3.375 -1.125 0 0 Z " fill="#F0E1D3" transform="translate(244,246)"/>
<path d="M0 0 C0.66 0.66 1.32 1.32 2 2 C1.01 2.33 0.02 2.66 -1 3 C-1 3.66 -1 4.32 -1 5 C-0.34 5.33 0.32 5.66 1 6 C0.34 7.98 -0.32 9.96 -1 12 C-1.33 12 -1.66 12 -2 12 C-3.125 5.375 -3.125 5.375 -2 2 C-1.34 2 -0.68 2 0 2 C0 1.34 0 0.68 0 0 Z " fill="#F4741E" transform="translate(317,181)"/>
<path d="M0 0 C0.125 2.875 0.125 2.875 0 6 C-0.66 6.66 -1.32 7.32 -2 8 C-2.66 6.02 -3.32 4.04 -4 2 C-1 0 -1 0 0 0 Z " fill="#F1D6C2" transform="translate(211,89)"/>
<path d="M0 0 C0 0.66 0 1.32 0 2 C-0.66 2 -1.32 2 -2 2 C-2 3.65 -2 5.3 -2 7 C-3.32 5.35 -4.64 3.7 -6 2 C-3 0 -3 0 0 0 Z " fill="#F77B29" transform="translate(166,79)"/>
<path d="M0 0 C2.31 0.33 4.62 0.66 7 1 C7 1.33 7 1.66 7 2 C6.030625 2.28875 5.06125 2.5775 4.0625 2.875 C0.89335797 3.64214682 0.89335797 3.64214682 0 6 C-0.66 6 -1.32 6 -2 6 C-1.34 4.02 -0.68 2.04 0 0 Z " fill="#F27B29" transform="translate(306,225)"/>
<path d="M0 0 C1.98 0.495 1.98 0.495 4 1 C4 1.66 4 2.32 4 3 C3.34 3 2.68 3 2 3 C2 3.66 2 4.32 2 5 C1.01 5 0.02 5 -1 5 C-0.67 3.35 -0.34 1.7 0 0 Z " fill="#EAE5DC" transform="translate(245,154)"/>
<path d="M0 0 C0.66 0 1.32 0 2 0 C3.42944945 2.35438733 4.08661261 3.48032433 3.625 6.25 C3.41875 6.8275 3.2125 7.405 3 8 C2.67 6.35 2.34 4.7 2 3 C1.34 3 0.68 3 0 3 C-0.33 3.66 -0.66 4.32 -1 5 C-0.67 3.35 -0.34 1.7 0 0 Z " fill="#F88B47" transform="translate(278,147)"/>
<path d="M0 0 C0.66 1.32 1.32 2.64 2 4 C1.01 5.485 1.01 5.485 0 7 C-0.99 7 -1.98 7 -3 7 C-1.125 2.25 -1.125 2.25 0 0 Z " fill="#F38333" transform="translate(151,136)"/>
<path d="M0 0 C1.5 1 1.5 1 3 3 C3.27345479 5.71846235 3.13491285 8.25677199 3 11 C2.67 11 2.34 11 2 11 C2 9.35 2 7.7 2 6 C1.34 6 0.68 6 0 6 C0 4.02 0 2.04 0 0 Z " fill="#F69B60" transform="translate(323,225)"/>
<path d="M0 0 C0.99 0.33 1.98 0.66 3 1 C1.625 3.5 1.625 3.5 0 6 C-0.66 6 -1.32 6 -2 6 C-1.125 1.125 -1.125 1.125 0 0 Z " fill="#EDE3D1" transform="translate(245,180)"/>
<path d="M0 0 C2.31 0 4.62 0 7 0 C2.25 4 2.25 4 0 4 C0 2.68 0 1.36 0 0 Z " fill="#EFDFD3" transform="translate(174,110)"/>
</svg>
